<svg width="70" height="104" viewBox="0 0 70 104" fill="none" xmlns="http://www.w3.org/2000/svg">
<path d="M13.1363 94.1753L23.483 86.4573C24.5598 85.6592 23.1847 84.1233 22.0861 84.9564L13.4817 91.3763C13.3859 87.4685 15.2786 84.7585 18.6622 82.8337C22.0459 80.9089 25.6222 79.9183 28.7829 77.8376C30.4179 76.834 31.7526 75.4089 32.6472 73.7119C33.5417 72.0148 33.9631 70.1083 33.8671 68.1923C33.6626 61.297 30.0221 54.5656 26.9424 48.5718C25.243 45.2713 23.531 41.9772 22.1211 38.5284C21.042 35.9111 20.1239 32.6313 21.9616 30.1242C24.0022 27.3463 28.8677 27.8324 31.758 28.4488C35.5641 29.2553 39.1147 31.0827 42.5664 32.8257C45.6674 34.5403 48.911 35.9831 52.2611 37.1377C54.4692 37.8495 57.1089 38.3956 59.406 37.56C65.1968 35.371 61.1319 26.6641 59.0828 23.1773C55.9813 18.1945 52.0922 13.7475 47.5671 10.0096C43.5385 6.53617 38.3465 1.52157 32.6311 1.74915C31.3128 1.79704 31.2101 3.87578 32.5505 3.82451C35.9677 3.68618 39.0226 5.91063 41.6568 7.81037C44.1245 9.67335 46.4861 11.6728 48.7306 13.7993C53.4141 18.2402 58.1579 23.6672 59.8881 30.0666C60.5356 32.5237 60.6707 35.6247 57.4789 35.8462C54.688 35.9973 51.7543 34.831 49.2387 33.7365C42.3974 30.7749 35.9438 26.0891 28.2257 25.9128C25.2618 25.8506 22.227 26.5955 20.2802 28.9519C18.5615 31.0245 18.712 34.0779 19.2993 36.5261C20.1302 39.946 21.9367 43.2075 23.5075 46.2879C25.1912 49.6043 26.9505 52.8821 28.4676 56.2919C30.0324 59.6486 31.1276 63.2047 31.7224 66.8601C32.0954 68.8885 31.7895 70.9834 30.8519 72.8204C29.0809 76.0004 25.2434 77.4427 22.0884 78.8213C19.3735 79.8322 16.8471 81.2908 14.6141 83.1364C13.299 84.3623 12.3528 85.9315 11.8826 87.6669L11.7025 87.052C11.2179 85.6 10.7607 84.1392 10.3307 82.6698C10.1695 82.1486 10.0251 81.6187 9.8975 81.0803C9.8385 80.8721 9.78462 80.2244 9.75953 80.563C9.87281 79.2336 7.791 79.1405 7.68417 80.4824C7.72725 81.2587 7.89612 82.0228 8.18419 82.7449C8.58762 84.1988 9.01316 85.6493 9.43869 87.0998L11.4081 93.7023C11.4604 93.8734 11.5551 94.0284 11.6834 94.1529C11.8117 94.2775 11.9695 94.3676 12.142 94.4148C12.3145 94.462 12.4961 94.4648 12.6699 94.4229C12.8438 94.3811 13.0042 94.2959 13.1363 94.1753Z" fill="#596D32"/>
</svg>
