<svg width="181" height="51" viewBox="0 0 181 51" fill="none" xmlns="http://www.w3.org/2000/svg">
<path d="M45.112 34.176C44.344 34.176 43.6347 34.0267 42.984 33.728C42.3333 33.4187 41.7573 33.0133 41.256 32.512C40.7547 32 40.36 31.4027 40.072 30.72C39.784 30.0267 39.64 29.2587 39.64 28.416C39.64 27.5947 39.784 26.8373 40.072 26.144C40.3707 25.44 40.7653 24.8267 41.256 24.304C41.7467 23.792 42.3173 23.3867 42.968 23.088C43.6293 22.7893 44.344 22.64 45.112 22.64C45.9227 22.64 46.696 22.8267 47.432 23.2C48.168 23.5627 48.8507 24.128 49.48 24.896L47.928 26.176C47.4907 25.632 47.0373 25.2427 46.568 25.008C46.0987 24.7627 45.6133 24.64 45.112 24.64C44.632 24.64 44.184 24.736 43.768 24.928C43.3627 25.12 42.9947 25.3867 42.664 25.728C42.344 26.0587 42.0933 26.4533 41.912 26.912C41.7307 27.36 41.64 27.8613 41.64 28.416C41.64 28.9707 41.7307 29.472 41.912 29.92C42.0933 30.3573 42.344 30.7467 42.664 31.088C42.984 31.4293 43.352 31.696 43.768 31.888C44.184 32.08 44.632 32.176 45.112 32.176C45.6133 32.176 46.0987 32.0587 46.568 31.824C47.0373 31.5787 47.4907 31.184 47.928 30.64L49.48 31.92C48.8507 32.688 48.168 33.2587 47.432 33.632C46.696 33.9947 45.9227 34.176 45.112 34.176ZM62.205 28.368C62.205 29.168 62.061 29.92 61.773 30.624C61.4957 31.3173 61.1063 31.9253 60.605 32.448C60.1037 32.9707 59.5223 33.3813 58.861 33.68C58.1997 33.9787 57.4903 34.128 56.733 34.128C55.965 34.128 55.2503 33.9787 54.589 33.68C53.9277 33.3707 53.3463 32.9547 52.845 32.432C52.3437 31.8987 51.949 31.2853 51.661 30.592C51.3837 29.888 51.245 29.1467 51.245 28.368C51.245 27.5893 51.389 26.8587 51.677 26.176C51.965 25.4827 52.365 24.8747 52.877 24.352C53.389 23.8187 53.9757 23.4027 54.637 23.104C55.2983 22.8053 55.997 22.656 56.733 22.656C57.4903 22.656 58.1943 22.8053 58.845 23.104C59.5063 23.4027 60.0877 23.8187 60.589 24.352C61.101 24.8747 61.4957 25.4827 61.773 26.176C62.061 26.8587 62.205 27.5893 62.205 28.368ZM60.221 28.368C60.221 27.664 60.061 27.024 59.741 26.448C59.4317 25.872 59.0103 25.4133 58.477 25.072C57.9543 24.72 57.373 24.544 56.733 24.544C56.093 24.544 55.5063 24.72 54.973 25.072C54.4397 25.424 54.013 25.8933 53.693 26.48C53.3837 27.056 53.229 27.6853 53.229 28.368C53.229 29.072 53.3837 29.7173 53.693 30.304C54.013 30.8907 54.4397 31.36 54.973 31.712C55.5063 32.064 56.093 32.24 56.733 32.24C57.3837 32.24 57.9703 32.064 58.493 31.712C59.0157 31.36 59.4317 30.8907 59.741 30.304C60.061 29.7067 60.221 29.0613 60.221 28.368ZM70.4714 34V33.088C70.162 33.3867 69.8154 33.6267 69.4314 33.808C69.0474 33.9893 68.626 34.08 68.1674 34.08C67.3567 34.08 66.6314 33.8987 65.9914 33.536C65.362 33.1627 64.866 32.6613 64.5034 32.032C64.1407 31.4027 63.9594 30.7093 63.9594 29.952V22.8H65.8634L65.8794 29.952C65.8794 30.3573 65.9807 30.7253 66.1834 31.056C66.386 31.376 66.658 31.6267 66.9994 31.808C67.3514 31.9893 67.7407 32.08 68.1674 32.08C68.6154 32.08 69.01 31.9893 69.3514 31.808C69.7034 31.616 69.9754 31.36 70.1674 31.04C70.37 30.72 70.4714 30.3573 70.4714 29.952V22.8H72.3914V29.648C72.3914 29.7547 72.3807 29.8507 72.3594 29.936H72.3914V34H70.4714ZM74.4744 34L74.4904 22.8H78.6664C79.253 22.8 79.765 22.9653 80.2024 23.296C80.6397 23.616 80.9757 24.0373 81.2104 24.56C81.4557 25.072 81.5784 25.6213 81.5784 26.208C81.5784 26.624 81.4984 27.0347 81.3384 27.44C81.189 27.8453 80.981 28.2133 80.7144 28.544C80.4477 28.8747 80.133 29.1413 79.7704 29.344C79.4184 29.536 79.0344 29.632 78.6184 29.632H76.3944V34H74.4744ZM76.3944 27.744H78.5384C78.8477 27.744 79.1144 27.5893 79.3384 27.28C79.573 26.96 79.6904 26.6027 79.6904 26.208C79.6904 25.7707 79.5677 25.408 79.3224 25.12C79.0877 24.832 78.8424 24.688 78.5864 24.688H76.3944V27.744ZM98.8274 28.368C98.8274 29.136 98.6887 29.8613 98.4114 30.544C98.1447 31.216 97.766 31.8133 97.2754 32.336C96.7847 32.8587 96.2087 33.2693 95.5474 33.568C94.8967 33.856 94.1927 34 93.4354 34H90.0594V22.752H93.4354C94.2034 22.752 94.9127 22.9013 95.5634 23.2C96.2247 23.4987 96.7954 23.9093 97.2754 24.432C97.766 24.9547 98.1447 25.552 98.4114 26.224C98.6887 26.896 98.8274 27.6107 98.8274 28.368ZM96.8434 28.368C96.8434 27.6747 96.694 27.056 96.3954 26.512C96.0967 25.9573 95.686 25.52 95.1634 25.2C94.6514 24.88 94.0754 24.72 93.4354 24.72H91.9794V32.032H93.4354C94.086 32.032 94.6674 31.8667 95.1794 31.536C95.6914 31.2053 96.0967 30.7627 96.3954 30.208C96.694 29.6533 96.8434 29.04 96.8434 28.368ZM106.775 34H100.743V22.8H106.775V24.592H102.663V27.712H105.991V29.328H102.663V32.208H106.775V34ZM120.561 34.176C119.793 34.176 119.084 34.0267 118.433 33.728C117.783 33.4187 117.207 33.0133 116.705 32.512C116.204 32 115.809 31.4027 115.521 30.72C115.233 30.0267 115.089 29.2587 115.089 28.416C115.089 27.5947 115.233 26.8373 115.521 26.144C115.82 25.44 116.215 24.8267 116.705 24.304C117.196 23.792 117.767 23.3867 118.417 23.088C119.079 22.7893 119.793 22.64 120.561 22.64C121.372 22.64 122.145 22.8267 122.881 23.2C123.617 23.5627 124.3 24.128 124.929 24.896L123.377 26.176C122.94 25.632 122.487 25.2427 122.017 25.008C121.548 24.7627 121.063 24.64 120.561 24.64C120.081 24.64 119.633 24.736 119.217 24.928C118.812 25.12 118.444 25.3867 118.113 25.728C117.793 26.0587 117.543 26.4533 117.361 26.912C117.18 27.36 117.089 27.8613 117.089 28.416C117.089 28.9707 117.18 29.472 117.361 29.92C117.543 30.3573 117.793 30.7467 118.113 31.088C118.433 31.4293 118.801 31.696 119.217 31.888C119.633 32.08 120.081 32.176 120.561 32.176C121.063 32.176 121.548 32.0587 122.017 31.824C122.487 31.5787 122.94 31.184 123.377 30.64L124.929 31.92C124.3 32.688 123.617 33.2587 122.881 33.632C122.145 33.9947 121.372 34.176 120.561 34.176ZM137.654 28.368C137.654 29.168 137.51 29.92 137.222 30.624C136.945 31.3173 136.556 31.9253 136.054 32.448C135.553 32.9707 134.972 33.3813 134.31 33.68C133.649 33.9787 132.94 34.128 132.182 34.128C131.414 34.128 130.7 33.9787 130.038 33.68C129.377 33.3707 128.796 32.9547 128.294 32.432C127.793 31.8987 127.398 31.2853 127.11 30.592C126.833 29.888 126.694 29.1467 126.694 28.368C126.694 27.5893 126.838 26.8587 127.126 26.176C127.414 25.4827 127.814 24.8747 128.326 24.352C128.838 23.8187 129.425 23.4027 130.086 23.104C130.748 22.8053 131.446 22.656 132.182 22.656C132.94 22.656 133.644 22.8053 134.294 23.104C134.956 23.4027 135.537 23.8187 136.038 24.352C136.55 24.8747 136.945 25.4827 137.222 26.176C137.51 26.8587 137.654 27.5893 137.654 28.368ZM135.67 28.368C135.67 27.664 135.51 27.024 135.19 26.448C134.881 25.872 134.46 25.4133 133.926 25.072C133.404 24.72 132.822 24.544 132.182 24.544C131.542 24.544 130.956 24.72 130.422 25.072C129.889 25.424 129.462 25.8933 129.142 26.48C128.833 27.056 128.678 27.6853 128.678 28.368C128.678 29.072 128.833 29.7173 129.142 30.304C129.462 30.8907 129.889 31.36 130.422 31.712C130.956 32.064 131.542 32.24 132.182 32.24C132.833 32.24 133.42 32.064 133.942 31.712C134.465 31.36 134.881 30.8907 135.19 30.304C135.51 29.7067 135.67 29.0613 135.67 28.368ZM145.601 34H139.569V22.8H145.601V24.592H141.489V27.712H144.817V29.328H141.489V32.208H145.601V34ZM153.869 34V33.088C153.56 33.3867 153.213 33.6267 152.829 33.808C152.445 33.9893 152.024 34.08 151.565 34.08C150.755 34.08 150.029 33.8987 149.389 33.536C148.76 33.1627 148.264 32.6613 147.901 32.032C147.539 31.4027 147.357 30.7093 147.357 29.952V22.8H149.261L149.277 29.952C149.277 30.3573 149.379 30.7253 149.581 31.056C149.784 31.376 150.056 31.6267 150.397 31.808C150.749 31.9893 151.139 32.08 151.565 32.08C152.013 32.08 152.408 31.9893 152.749 31.808C153.101 31.616 153.373 31.36 153.565 31.04C153.768 30.72 153.869 30.3573 153.869 29.952V22.8H155.789V29.648C155.789 29.7547 155.779 29.8507 155.757 29.936H155.789V34H153.869ZM165.617 34H163.329L160.769 29.632H159.793V34H157.873L157.889 22.8H162.097C162.662 22.8 163.163 22.96 163.601 23.28C164.038 23.6 164.379 24.0213 164.625 24.544C164.881 25.056 165.009 25.6107 165.009 26.208C165.009 26.656 164.918 27.0987 164.737 27.536C164.566 27.9627 164.326 28.3467 164.017 28.688C163.707 29.0293 163.35 29.2853 162.945 29.456L165.617 34ZM163.057 26.208C163.057 25.9947 163.009 25.776 162.913 25.552C162.817 25.3173 162.689 25.12 162.529 24.96C162.369 24.8 162.182 24.72 161.969 24.72H159.793V27.6H161.969C162.182 27.6 162.369 27.5307 162.529 27.392C162.689 27.2533 162.817 27.0773 162.913 26.864C163.009 26.64 163.057 26.4213 163.057 26.208Z" fill="#596D32"/>
<path d="M29.7163 31.9657C29.5655 32.2711 29.4067 32.5793 29.2548 32.8851L29.1689 32.8571C24.5076 31.3062 18.5459 30.4561 15.9425 25.5331C15.0445 23.8354 14.6805 21.5445 15.9027 20.1673C17.0988 18.818 19.2373 18.986 20.9418 19.6446C22.4155 20.2216 23.769 21.0673 24.9333 22.1386C25.1675 20.8004 25.4062 19.4492 25.9251 18.2115C26.444 16.9738 27.2843 15.8431 28.4428 15.2491C29.2282 14.849 30.1792 14.7195 31.0107 15.0667C31.542 15.3084 32.005 15.6781 32.3581 16.1427C33.2669 17.2723 33.685 18.7591 33.7299 20.211C33.7748 21.663 33.4745 23.0948 33.0793 24.4685C32.3216 27.1096 30.9635 29.5374 29.7163 31.9657Z" fill="#FFA7C1"/>
<path d="M150.778 7.23913C149.991 7.22806 149.206 7.17937 148.425 7.13954L146.086 7.00896L143.759 6.82306C142.983 6.76109 142.22 6.70133 141.437 6.61945C139.898 6.46674 138.359 6.32067 136.802 6.1392L134.481 5.88469L132.15 5.61247C125.908 4.89541 119.674 4.019 113.447 3.20235C110.334 2.7885 107.194 2.42554 104.052 2.09578C100.91 1.76602 97.757 1.47389 94.6193 1.23487C93.8366 1.17069 93.0538 1.11094 92.2689 1.06225L89.9162 0.907325C88.3485 0.825439 86.7786 0.732487 85.2065 0.686011C83.6344 0.639535 82.0623 0.586423 80.488 0.544373C78.9137 0.502324 77.3371 0.495683 75.7584 0.508962C72.6157 0.508962 69.47 0.57093 66.3214 0.694865C63.1706 0.805523 60.022 1.00692 56.8667 1.26143C53.7115 1.51594 50.5695 1.88332 47.4319 2.2839C44.2943 2.68448 41.1677 3.15588 38.0498 3.70031C31.8252 4.78696 25.5961 6.17018 19.6924 8.52496C16.745 9.69961 13.9026 11.1256 11.1965 12.7875C8.50298 14.4473 5.93264 16.3816 3.8878 18.8205C3.37969 19.4312 2.90831 20.0719 2.47619 20.7393C2.05074 21.4132 1.6745 22.1174 1.35043 22.8462C1.02732 23.5755 0.762629 24.3296 0.558888 25.1014C0.350542 25.875 0.212915 26.6662 0.147723 27.465C-0.00277357 29.0715 0.193744 30.6917 0.723795 32.2144C1.28096 33.7316 2.163 35.1068 3.30733 36.2424C4.44376 37.371 5.74327 38.3201 7.16175 39.0575C8.56491 39.8005 10.0234 40.4324 11.5241 40.9475C13.017 41.4764 14.5364 41.9146 16.0513 42.3617C17.5662 42.8088 19.0944 43.2248 20.6203 43.6365C26.7771 45.3091 33.0208 46.639 39.3229 47.6201C45.6267 48.5696 51.9723 49.1295 58.3289 49.5256C64.6855 49.9218 71.0685 50.2405 77.4383 50.3644C83.8081 50.4884 90.1779 50.5525 96.5455 50.5348C102.913 50.5171 109.265 50.287 115.615 49.8886C121.903 49.5331 128.169 48.8543 134.388 47.8547C140.579 46.843 146.689 45.3792 152.669 43.4749C155.652 42.5188 158.605 41.4499 161.519 40.2504L162.605 39.7945C162.968 39.644 163.33 39.489 163.687 39.3253C164.401 38.9999 165.122 38.6835 165.83 38.3515C167.242 37.6886 168.616 36.9498 169.949 36.1383C172.587 34.5117 175.017 32.5641 176.923 30.2116C177.403 29.6288 177.844 29.0144 178.242 28.3724C178.641 27.7361 178.992 27.0702 179.291 26.3806C179.899 25.0192 180.276 23.565 180.406 22.0783C180.541 20.5872 180.415 19.0838 180.034 17.6365C179.645 16.1671 179.024 14.7699 178.196 13.4979C176.499 10.9248 174.199 8.81174 171.499 7.34536C170.056 6.55305 168.92 6.25649 168.64 6.28527C168.5 6.29854 168.568 6.39149 168.895 6.57297C169.223 6.75445 169.799 7.03552 170.654 7.49806C172.244 8.35228 173.711 9.41911 175.017 10.6695C176.3 11.8871 177.382 13.3028 178.223 14.8634C179.039 16.3799 179.54 18.0478 179.696 19.7655C179.833 21.4766 179.617 23.1977 179.06 24.8203C178.474 26.4769 177.601 28.0159 176.481 29.3661C175.322 30.7634 174.007 32.022 172.563 33.1174C171.089 34.2412 169.533 35.2497 167.906 36.1339C167.09 36.5765 166.257 37.0192 165.413 37.4087C164.568 37.7982 163.687 38.1921 162.825 38.5839C155.905 41.5815 148.705 43.874 141.332 45.4269C133.918 47.0237 126.404 48.1077 118.843 48.6714C112.407 49.1494 105.952 49.1671 99.494 49.2069C93.0362 49.2468 86.5587 49.2069 80.0834 49.0808C73.6081 48.9546 67.1349 48.8595 60.6904 48.481C54.2458 48.1026 47.8167 47.5405 41.4425 46.622C35.0799 45.6836 28.7743 44.3884 22.5552 42.7424C21.0359 42.344 19.5231 41.9324 18.017 41.4897C16.5108 41.0471 15.0025 40.589 13.5271 40.1087C12.0726 39.6418 10.6473 39.0868 9.25934 38.4466C7.91855 37.8291 6.65199 37.0598 5.4841 36.1538C4.36734 35.2908 3.43231 34.2127 2.73346 32.9824C2.6521 32.8297 2.55536 32.6858 2.485 32.5265L2.26512 32.0529C2.19119 31.8971 2.1273 31.7367 2.07383 31.5726C2.02106 31.4089 1.9573 31.2495 1.91113 31.0813C1.72149 30.412 1.60356 29.7243 1.55933 29.0297C1.51255 28.3217 1.53611 27.6107 1.62968 26.9073C1.71814 26.1927 1.87046 25.4875 2.08481 24.8004C2.51102 23.409 3.15211 22.0938 3.98454 20.9031C5.66438 18.4885 7.99946 16.5144 10.5566 14.8324C13.1614 13.1567 15.9011 11.7034 18.747 10.488C24.4637 8.05356 30.5433 6.53314 36.691 5.39779C39.7692 4.82902 42.8739 4.35761 45.9917 3.9504C49.1096 3.54318 52.2384 3.19793 55.3694 2.91465C61.7084 2.3503 68.032 2.18873 74.3886 2.14447C77.5658 2.12013 80.7474 2.15996 83.929 2.24185C87.1106 2.32374 90.2878 2.49636 93.4562 2.71989C99.793 3.19793 106.156 3.84417 112.491 4.64975C118.825 5.45533 125.171 6.31846 131.558 6.98904C133.157 7.1506 134.751 7.3188 136.352 7.45159C137.152 7.5202 137.95 7.59765 138.75 7.65741L141.154 7.82783L142.356 7.91192L143.561 7.97389L145.969 8.09783L148.388 8.17308C149.192 8.19521 149.997 8.2284 150.806 8.22397C151.875 8.22397 152.807 8.2166 153.603 8.20185C154.401 8.17308 155.063 8.11775 155.582 8.06906C156.633 7.96947 157.143 7.84774 157.121 7.7393C157.099 7.63085 156.558 7.51798 155.494 7.44495C154.964 7.40511 154.302 7.38519 153.515 7.34757C152.728 7.30995 151.82 7.26569 150.778 7.23913Z" fill="#6C7D49"/>
</svg>
